# xmcd
#
# Track frame offsets: 
#        150
#        16155
#        33223
#        49178
#        65370
#        77785
#        96550
#        114953
#        135543
#        156715
#        172075
#        188810
#        211025
#        231780
#        246810
#        263498
#
# Disc length: 3767 seconds
#
# Revision: 1
# Processed by: cddbd v1.5.2PL0 Copyright (c) Steve Scherf et al.
# Submitted via: ExactAudioCopy v0.99pb4
#
DISCID=d30eb510
DTITLE=Сергей Наговицын - Дори-Дори
DYEAR=1996
DGENRE=Chanson
TTITLE0=Дори - Дори...
TTITLE1=Динамовский Каток
TTITLE2=Улица
TTITLE3=До Утра
TTITLE4=Снег Растает
TTITLE5=Охота
TTITLE6=Выборы
TTITLE7=Встреча
TTITLE8=Маячок
TTITLE9=По Весне
TTITLE10=За Облака
TTITLE11=Светка
TTITLE12=Вечер
TTITLE13=На Привокзальной Площади
TTITLE14=Кабачок
TTITLE15=Мадам
EXTD=
EXTT0=
EXTT1=
EXTT2=
EXTT3=
EXTT4=
EXTT5=
EXTT6=
EXTT7=
EXTT8=
EXTT9=
EXTT10=
EXTT11=
EXTT12=
EXTT13=
EXTT14=
EXTT15=
PLAYORDER=
